<svg height="512pt" viewBox="0 0 512 512" width="512pt" xmlns="http://www.w3.org/2000/svg"><path d="m512 256c0 141.386719-114.613281 256-256 256s-256-114.613281-256-256 114.613281-256 256-256 256 114.613281 256 256zm0 0" fill="#fdbf00"/><path d="m505.558594 198.703125-86.585938-86.582031-19.660156 19.660156 112.40625 112.40625c-.707031-15.5625-2.796875-30.765625-6.160156-45.484375zm0 0" fill="#ff9100"/><path d="m359.484375 114.902344-71.363281 71.363281-72.523438-72.519531-12.675781 12.675781-27.921875-18.921875-2.765625 34.082031-49.855469-49.851562-19.660156 19.660156 49.851562 49.855469-20.957031 20.957031 80.285157 80.285156-95.007813 95.003907 1.609375 30.007812-2.640625 25.382812 95.179687 95.179688c14.597657 2.582031 29.621094 3.9375 44.960938 3.9375 137.644531 0 249.898438-108.632812 255.742188-244.839844zm0 0" fill="#ff9100"/><path d="m359.378906 351.882812-76.738281 76.734376-13.8125-14 76.742187-76.75c11.441407-11.441407 11.441407-30.371094 0-41.820313-11.636718-11.441406-30.378906-11.441406-42.019531 0l-116.722656 118c-19.332031 19.136719-50.503906 19.136719-69.835937 0-11.441407-11.433594-15.980469-27.222656-13.808594-42.019531 1.378906-10.054688 6.117187-19.917969 13.808594-27.816406l19.269531-20.347657 7 7.003907.101562.105468 6.902344 6.894532-19.265625 20.359374c-11.640625 11.433594-11.640625 30.175782 0 41.820313 11.441406 11.4375 30.183594 11.4375 41.820312 0l116.921876-118.007813c19.136718-19.136718 50.503906-19.136718 69.640624 0 19.332032 19.339844 19.332032 50.503907-.003906 69.84375zm0 0" fill="#f2f2fc"/><path d="m359.378906 351.882812-76.738281 76.734376-13.8125-14 76.742187-76.75c11.441407-11.441407 11.441407-30.371094 0-41.820313-11.636718-11.441406-30.378906-11.441406-42.019531 0l-116.722656 118c-19.332031 19.136719-50.503906 19.136719-69.835937 0-11.441407-11.433594-15.980469-27.222656-13.808594-42.019531l40.078125-41.164063.101562.105469 6.902344 6.898438-19.265625 20.355468c-11.640625 11.4375-11.640625 30.179688 0 41.824219 11.441406 11.433594 30.183594 11.433594 41.820312 0l116.921876-118.007813c19.136718-19.136718 50.503906-19.136718 69.640624 0 19.332032 19.339844 19.332032 50.503907-.003906 69.84375zm0 0" fill="#d8d8fc"/><path d="m182.226562 161.417969h-19.730468v-69.703125l53.097656 22.019531-7.554688 18.226563-25.8125-10.714844zm0 0" fill="#9bfcff"/><path d="m187.550781 333.335938-31.167969 24.660156-20.121093-20.125-20.125-20.121094 24.660156-31.167969 43.007813 3.746094zm0 0" fill="#895d3c"/><path d="m183.804688 290.328125 3.746093 43.007813-31.167969 24.660156-20.121093-20.125zm0 0" fill="#714c2f"/><path d="m297.632812 246.136719-94.496093 74.96875-15.585938 12.230469-46.753906-46.753907 12.230469-15.585937 74.964844-94.496094 34.917968 34.917969zm0 0" fill="#ff637b"/><path d="m187.550781 333.335938-23.277343-23.277344 98.636718-98.640625 34.722656 34.71875-94.496093 74.96875zm0 0" fill="#e63950"/><path d="m357.605469 227.789062c-14.597657 14.007813-33.738281 21.703126-54.054688 21.703126-20.910156 0-40.835937-8.285157-55.632812-23.277344-14.992188-14.796875-23.277344-34.722656-23.277344-55.632813 0-20.320312 7.695313-39.652343 21.699219-54.253906l55.632812 55.828125zm0 0" fill="#d8d8fc"/><path d="m357.605469 227.789062c-14.597657 14.007813-33.738281 21.703126-54.054688 21.703126-20.910156 0-40.835937-8.285157-55.632812-23.277344l54.054687-54.058594zm0 0" fill="#a3a3d1"/><path d="m240.816406 247.320312-27.816406 27.816407-6.902344-6.902344-7.105468-7.101563 27.816406-27.816406 7.101562 7.101563zm0 0" fill="#895d3c"/><path d="m152.632812 191.011719c-16.316406 0-29.589843-13.277344-29.589843-29.59375 0-16.316407 13.273437-29.589844 29.589843-29.589844 16.316407 0 29.59375 13.273437 29.59375 29.589844 0 16.316406-13.273437 29.59375-29.59375 29.59375zm0 0" fill="#9bfcff"/><path d="m439.34375 250.191406h-19.730469v-19.726562h-19.726562v19.726562h-19.726563v19.730469h19.726563v19.726563h19.726562v-19.726563h19.730469zm0 0" fill="#76e2f8"/><path d="m399.230469 112.097656h19.726562v19.730469h-19.726562zm0 0" fill="#d8d8fc"/><path d="m102.65625 91.714844h19.730469v19.726562h-19.730469zm0 0" fill="#f2f2fc"/><path d="m212.984375 275.140625-6.90625-6.902344 27.8125-27.820312 6.90625 6.902343zm0 0" fill="#714c2f"/><path d="m359.378906 114.753906c-19.925781-19.925781-48.136718-27.027344-73.78125-20.914062-16.175781 3.75-28.011718 11.246094-39.257812 22.492187-5.324219 26.632813 5.917968 58.589844 29.394531 82.066407 25.648437 25.84375 59.183594 34.523437 81.871094 29.394531 5.128906-3.355469 17.753906-18.9375 22.683593-38.664063 6.117188-25.648437-.789062-54.253906-20.910156-74.375zm0 0" fill="#f2f2fc"/><path d="m380.289062 189.125c-4.929687 19.730469-17.554687 35.3125-22.683593 38.664062-22.6875 5.132813-56.222657-3.550781-81.871094-29.390624l83.644531-83.644532c20.121094 20.121094 27.027344 48.726563 20.910156 74.371094zm0 0" fill="#d8d8fc"/></svg>