<svg height="512pt" viewBox="0 0 512 512" width="512pt" xmlns="http://www.w3.org/2000/svg"><path d="m512 256c0 141.386719-114.613281 256-256 256s-256-114.613281-256-256 114.613281-256 256-256 256 114.613281 256 256zm0 0" fill="#fdbf00"/><path d="m300 508.21875c120.308594-20.84375 211.832031-125.652344 211.996094-251.878906l-91.003906-91.003906-28.824219 28.828124-87.136719-87.136718-132.351562 132.355468 28.507812 28.511719-70.753906 70.753907zm0 0" fill="#ff9100"/><path d="m408.125 170.101562c-29.980469 10.957032-61.949219 16.527344-93.46875 16.527344s-62.847656-5.570312-92.828125-16.527344l-12.875-4.804687v142.21875c0 51.3125 30.75 97.503906 78.605469 116.53125l27.097656 10.953125 27.097656-10.953125c47.855469-19.027344 79.246094-65.21875 79.246094-116.53125v-142.21875zm0 0" fill="#ff637b"/><path d="m421 165.296875v142.21875c0 51.3125-31.390625 97.503906-79.246094 116.53125l-27.097656 10.953125v-248.371094c31.519531 0 63.484375-5.574218 93.46875-16.527344zm0 0" fill="#e63950"/><path d="m292.171875 111.804688c-29.980469 10.957031-61.308594 16.527343-92.828125 16.527343s-63.484375-5.570312-93.46875-16.527343l-12.875-4.804688v142.859375c0 51.316406 31.390625 96.863281 79.246094 115.890625l27.097656 10.953125 27.097656-10.953125c47.855469-19.027344 78.605469-64.574219 78.605469-115.890625v-142.859375zm0 0" fill="#fbf"/><path d="m305.046875 107v142.859375c0 51.316406-30.75 96.863281-78.605469 115.890625l-27.097656 10.953125v-248.371094c31.519531 0 62.847656-5.570312 92.828125-16.527343zm0 0" fill="#ff9ef3"/><path d="m247.390625 261.390625v9.609375c0 26.523438-21.523437 48.046875-48.046875 48.046875s-48.046875-21.523437-48.046875-48.046875v-9.609375h19.21875v9.609375c0 15.949219 12.875 28.828125 28.828125 28.828125s28.828125-12.878906 28.828125-28.828125v-9.609375zm0 0" fill="#895d3c"/><path d="m189.734375 232.5625h-19.21875c0-5.300781-4.308594-9.609375-9.609375-9.609375s-9.609375 4.308594-9.609375 9.609375h-19.21875c0-15.898438 12.929687-28.828125 28.828125-28.828125s28.828125 12.929687 28.828125 28.828125zm0 0" fill="#895d3c"/><path d="m266.609375 232.5625h-19.21875c0-5.300781-4.308594-9.609375-9.609375-9.609375s-9.609375 4.308594-9.609375 9.609375h-19.21875c0-15.898438 12.929687-28.828125 28.828125-28.828125s28.828125 12.929687 28.828125 28.828125zm0 0" fill="#714c2f"/><path d="m362.703125 367.09375v9.609375h-19.21875v-9.609375c0-15.953125-12.875-28.828125-28.828125-28.828125s-28.828125 12.875-28.828125 28.828125v9.609375h-19.21875v-9.609375c0-26.523438 21.523437-48.046875 48.046875-48.046875s48.046875 21.523437 48.046875 48.046875zm0 0" fill="#895d3c"/><g fill="#714c2f"><path d="m381.921875 290.21875h-19.21875c0-5.300781-4.308594-9.609375-9.609375-9.609375s-9.609375 4.308594-9.609375 9.609375h-19.21875c0-15.898438 12.929687-28.828125 28.828125-28.828125s28.828125 12.929687 28.828125 28.828125zm0 0"/><path d="m247.390625 261.390625v9.609375c0 26.523438-21.523437 48.046875-48.046875 48.046875v-19.21875c15.953125 0 28.828125-12.878906 28.828125-28.828125v-9.609375zm0 0"/><path d="m362.703125 367.09375v9.609375h-19.21875v-9.609375c0-15.953125-12.875-28.828125-28.828125-28.828125v-19.21875c26.523438 0 48.046875 21.523437 48.046875 48.046875zm0 0"/></g></svg>