<svg height="512pt" viewBox="0 0 512 512" width="512pt" xmlns="http://www.w3.org/2000/svg" xmlns:xlink="http://www.w3.org/1999/xlink"><linearGradient id="a" gradientUnits="userSpaceOnUse" x1="74.9807" x2="437.0193" y1="74.9807" y2="437.0193"><stop offset="0" stop-color="#ffda2d"/><stop offset="1" stop-color="#eebf00"/></linearGradient><linearGradient id="b" gradientUnits="userSpaceOnUse" x1="228.9176" x2="283.0825" y1="130.0824" y2="184.2473"><stop offset="0" stop-color="#76e2f8"/><stop offset="1" stop-color="#2ac4f4"/></linearGradient><linearGradient id="c" gradientUnits="userSpaceOnUse" x1="181.3391" x2="330.6609" y1="81.3238" y2="230.6456"><stop offset="0" stop-color="#a4f7f7"/><stop offset="1" stop-color="#76e2f8"/></linearGradient><linearGradient id="d" gradientUnits="userSpaceOnUse" x1="138.1468" x2="373.8532" y1="141.7512" y2="377.4576"><stop offset="0" stop-color="#d697ef"/><stop offset="1" stop-color="#ae73e6"/></linearGradient><path d="m512 256c0 141.386719-114.613281 256-256 256s-256-114.613281-256-256 114.613281-256 256-256 256 114.613281 256 256zm0 0" fill="url(#a)"/><path d="m263.078125 110.273438-7.078125-7.273438-7.078125 7.273438c-1.179687 1.179687-25.953125 27.523437-31.261719 62.71875l38.339844 38.335937 38.339844-38.335937c-5.308594-35.195313-30.082032-61.539063-31.261719-62.71875zm0 0" fill="url(#b)"/><path d="m334.640625 146.644531c-34.207031 0-63.894531 19.464844-78.640625 47.972657-14.746094-28.507813-44.433594-47.972657-78.640625-47.972657h-61.34375l37.355469 18.679688c20.839844 10.417969 33.816406 31.457031 33.816406 54.851562v16.320313l58.984375 37.945312 9.828125-4.71875 68.8125-33.226562v-16.320313c0-23.394531 12.972656-44.433593 33.816406-54.851562l37.355469-18.675781h-61.34375zm0 0" fill="url(#c)"/><path d="m407.058594 208.578125c-10.8125 10.613281-26.214844 16.710937-41.15625 16.710937h-35.976563c-24.972656 0-48.367187 9.632813-66.0625 27.328126l-7.863281 7.863281-7.863281-7.863281c-17.695313-17.695313-41.089844-27.328126-66.0625-27.328126h-35.976563c-14.941406 0-29.6875-6.097656-40.5-16.710937l-17.367187-16.910156v97.714843c0 51.3125 42.53125 93.191407 93.84375 93.191407 20.054687 0 39.324219-6.292969 55.246093-18.089844 3.148438 5.503906 7.078126 10.617187 11.796876 15.140625l6.882812 7.078125 6.882812-7.078125c4.71875-4.523438 8.648438-9.636719 11.796876-15.140625 15.921874 11.796875 35.191406 18.089844 55.246093 18.089844 51.3125 0 93.84375-41.878907 93.84375-93.191407v-97.714843zm-186.839844 118.945313c-10.226562 10.027343-23.789062 15.726562-38.140625 15.726562-29.6875 0-53.871094-24.179688-53.871094-53.867188v-25.757812c9.042969.589844 12.386719.984375 17.890625.984375h35.980469c14.351563 0 27.917969 5.699219 38.140625 15.726563l23.59375 23.59375zm163.574219-38.140626c0 29.6875-24.179688 53.871094-53.867188 53.871094-14.355469 0-27.917969-5.703125-38.144531-15.730468l-23.589844-23.59375 23.589844-23.589844c10.226562-10.027344 23.792969-15.730469 38.144531-15.730469h35.976563c5.503906 0 8.847656-.394531 17.890625-.980469zm0 0" fill="url(#d)"/></svg>