<svg height="512pt" viewBox="0 0 512 512" width="512pt" xmlns="http://www.w3.org/2000/svg" xmlns:xlink="http://www.w3.org/1999/xlink"><linearGradient id="a" gradientUnits="userSpaceOnUse" x1="74.9807" x2="437.0193" y1="74.9807" y2="437.0193"><stop offset="0" stop-color="#663325"/><stop offset="1" stop-color="#3c1b13"/></linearGradient><linearGradient id="b"><stop offset="0" stop-color="#e2d8fc"/><stop offset="1" stop-color="#b3a2db"/></linearGradient><linearGradient id="c" gradientUnits="userSpaceOnUse" x1="240.3555" x2="271.6445" xlink:href="#b" y1="179.7773" y2="211.0664"/><linearGradient id="d"><stop offset="0" stop-color="#f2f2fc"/><stop offset="1" stop-color="#e2d8fc"/></linearGradient><linearGradient id="e" gradientUnits="userSpaceOnUse" x1="224.7109" x2="287.2891" xlink:href="#d" y1="205.8516" y2="268.4297"/><linearGradient id="f" gradientUnits="userSpaceOnUse" x1="320.1044" x2="359.7576" xlink:href="#b" y1="160.6469" y2="200.3001"/><linearGradient id="g" gradientUnits="userSpaceOnUse" x1="326.5811" x2="385.3853" xlink:href="#d" y1="195.1745" y2="253.9787"/><linearGradient id="h" gradientUnits="userSpaceOnUse" x1="331.5177" x2="435.7411" y1="243.7094" y2="347.9328"><stop offset="0" stop-color="#ffda2d"/><stop offset="1" stop-color="#eebf00"/></linearGradient><linearGradient id="i" gradientUnits="userSpaceOnUse" x1="157.5932" x2="186.5449" xlink:href="#b" y1="165.9976" y2="194.9493"/><linearGradient id="j" gradientUnits="userSpaceOnUse" x1="126.6147" x2="185.4189" xlink:href="#d" y1="195.1745" y2="253.9787"/><linearGradient id="k" gradientUnits="userSpaceOnUse" x1="89.6364" x2="167.1048" y1="257.0869" y2="334.5553"><stop offset="0" stop-color="#7fe881"/><stop offset="1" stop-color="#00ab94"/></linearGradient><linearGradient id="l" gradientUnits="userSpaceOnUse" x1="209.2025" x2="302.7892" y1="263.0788" y2="356.6655"><stop offset="0" stop-color="#ff5a99"/><stop offset="1" stop-color="#e53c79"/></linearGradient><linearGradient id="m" gradientUnits="userSpaceOnUse" x1="161.7852" x2="350.2148" y1="38.6289" y2="227.0586"><stop offset="0" stop-color="#d697ef"/><stop offset="1" stop-color="#ae73e6"/></linearGradient><path d="m512 256c0 141.386719-114.613281 256-256 256s-256-114.613281-256-256 114.613281-256 256-256 256 114.613281 256 256zm0 0" fill="url(#a)"/><path d="m245.570312 174.5625h20.859376v41.71875h-20.859376zm0 0" fill="url(#c)"/><path d="m224.710938 205.851562v62.578126h62.578124v-62.578126zm0 0" fill="url(#e)"/><path d="m339.046875 208.542969 19.601563-7.136719-17.835938-49-19.601562 7.132812zm0 0" fill="url(#f)"/><path d="m315.878906 205.875 58.804688-21.402344 21.402344 58.804688-58.804688 21.402344zm0 0" fill="url(#g)"/><path d="m354.910156 344.410156c15.570313 16.988282 39.285156 32.742188 54.582032 27.175782 15.304687-5.570313 23.351562-32.832032 24.355468-55.808594 2.476563-56.679688-25.414062-69.839844-44.894531-92.101563l-58.804687 21.402344c-.546876 26.136719-13.105469 58.019531 24.761718 99.332031zm0 0" fill="url(#h)"/><path d="m172.953125 208.542969-19.601563-7.136719 17.835938-49 19.601562 7.132812zm0 0" fill="url(#i)"/><path d="m174.71875 264.679688-58.804688-21.402344 21.402344-58.804688 58.804688 21.402344zm0 0" fill="url(#j)"/><path d="m181.851562 245.078125-58.804687-21.402344c-19.476563 22.261719-47.371094 35.421875-44.890625 92.105469 1 22.972656 9.050781 50.238281 24.355469 55.808594 15.292969 5.566406 39.007812-10.191406 54.578125-27.175782 37.867187-41.316406 25.308594-73.199218 24.761718-99.335937zm0 0" fill="url(#k)"/><path d="m287.289062 247.570312h-62.578124c-10.636719 27.535157-32.332032 49.4375-10.636719 102.003907 8.761719 21.066406 25.65625 44.011719 41.925781 44.011719 16.273438 0 33.167969-22.945313 41.929688-44.222657 21.480468-51.730469-1.253907-77.386719-10.640626-101.792969zm0 0" fill="url(#l)"/><path d="m434 122.414062v20.859376c-30.664062 0-57.152344 9.800781-85.105469 20.234374-28.371093 10.636719-58.476562 21.484376-92.894531 21.484376s-64.523438-10.847657-92.894531-21.484376c-27.949219-10.433593-54.441407-20.234374-85.105469-20.234374v-20.859376c34.417969 0 63.828125 10.847657 92.199219 21.484376 27.949219 10.429687 55.136719 20.234374 85.800781 20.234374s57.851562-9.804687 85.800781-20.234374c28.371094-10.636719 57.78125-21.484376 92.199219-21.484376zm0 0" fill="url(#m)"/></svg>