<svg height="512pt" viewBox="0 0 512 512" width="512pt" xmlns="http://www.w3.org/2000/svg" xmlns:xlink="http://www.w3.org/1999/xlink"><linearGradient id="a" gradientUnits="userSpaceOnUse" x1="74.9807" x2="437.0193" y1="74.9807" y2="437.0193"><stop offset="0" stop-color="#ff5a99"/><stop offset="1" stop-color="#e53c79"/></linearGradient><linearGradient id="b" gradientUnits="userSpaceOnUse" x1="139.9051" x2="236.1932" y1="269.8069" y2="366.095"><stop offset="0" stop-color="#7fe881"/><stop offset="1" stop-color="#00ab94"/></linearGradient><linearGradient id="c" gradientUnits="userSpaceOnUse" x1="220.9933" x2="317.2813" y1="188.7187" y2="285.0068"><stop offset="0" stop-color="#ffda2d"/><stop offset="1" stop-color="#eebf00"/></linearGradient><linearGradient id="d"><stop offset="0" stop-color="#a4f7f7"/><stop offset="1" stop-color="#76e2f8"/></linearGradient><linearGradient id="e" gradientUnits="userSpaceOnUse" x1="365.788" x2="399.4512" xlink:href="#d" y1="202.8369" y2="236.5001"/><linearGradient id="f" gradientUnits="userSpaceOnUse" x1="324.5217" x2="358.1849" xlink:href="#d" y1="244.1032" y2="277.7664"/><linearGradient id="g" gradientUnits="userSpaceOnUse" x1="269.4999" x2="303.1631" xlink:href="#d" y1="106.5488" y2="140.212"/><linearGradient id="h" gradientUnits="userSpaceOnUse" x1="228.2336" x2="261.8969" xlink:href="#d" y1="147.8151" y2="181.4783"/><linearGradient id="i" gradientUnits="userSpaceOnUse" x1="349.4521" x2="390.7184" y1="115.2816" y2="156.548"><stop offset="0" stop-color="#663325"/><stop offset="1" stop-color="#3c1b13"/></linearGradient><linearGradient id="j" gradientUnits="userSpaceOnUse" x1="93.7554" x2="190.0435" y1="315.9565" y2="412.2447"><stop offset="0" stop-color="#7fe881"/><stop offset="1" stop-color="#006837"/></linearGradient><linearGradient id="k" gradientUnits="userSpaceOnUse" x1="183.1658" x2="224.4321" y1="281.5679" y2="322.8342"><stop offset="0" stop-color="#f2f2fc"/><stop offset="1" stop-color="#e2d8fc"/></linearGradient><path d="m512 256c0 141.386719-114.613281 256-256 256s-256-114.613281-256-256 114.613281-256 256-256 256 114.613281 256 256zm0 0" fill="url(#a)"/><path d="m217.554688 288.445312-31.5-64.789062-78.542969 78.542969v27.511719l34.386719 34.390624 34.390624 34.386719h27.511719l78.542969-78.542969zm0 0" fill="url(#b)"/><path d="m355.109375 192.15625-41.265625-41.265625-36.726562 36.726563c-23.25 23.25-54.195313 36.042968-87.070313 36.179687l-3.992187-.140625 17.746093 78.546875 78.542969 17.742187-.140625-3.988281c.140625-32.875 12.933594-63.824219 36.179687-87.070312zm0 0" fill="url(#c)"/><path d="m358.910156 222.019531 6.152344-18.457031 41.265625 13.753906-6.152344 18.457032zm0 0" fill="url(#e)"/><path d="m339.003906 284.644531-13.757812-41.265625 18.457031-6.152344 13.757813 41.265626zm0 0" fill="url(#f)"/><path d="m283.980469 147.089844-13.753907-41.265625 18.457032-6.152344 13.753906 41.265625zm0 0" fill="url(#g)"/><path d="m221.355469 166.996094 6.152343-18.457032 41.265626 13.757813-6.152344 18.457031zm0 0" fill="url(#h)"/><path d="m391.367188 114.632812-20.632813-20.632812-42.5625 42.5625 41.265625 41.265625 42.5625-42.5625zm0 0" fill="url(#i)"/><path d="m155.65625 350.34375-48.144531-48.144531-27.511719 27.511719 96.289062 96.289062 27.511719-27.511719zm0 0" fill="url(#j)"/><path d="m224.433594 281.566406c-11.417969-11.414062-29.851563-11.414062-41.269532 0-11.414062 11.417969-11.414062 29.851563 0 41.269532 11.417969 11.414062 29.851563 11.414062 41.269532 0 11.414062-11.417969 11.414062-29.851563 0-41.269532zm0 0" fill="url(#k)"/></svg>