<?xml version="1.0" encoding="iso-8859-1"?>
<!-- Generator: Adobe Illustrator 21.0.0, SVG Export Plug-In . SVG Version: 6.00 Build 0)  -->
<svg xmlns="http://www.w3.org/2000/svg" xmlns:xlink="http://www.w3.org/1999/xlink" version="1.1" id="Capa_1" x="0px" y="0px" viewBox="0 0 512 512" style="enable-background:new 0 0 512 512;" xml:space="preserve" width="512" height="512">
<g>
	<circle style="fill:#BD9B7B;" cx="256" cy="256" r="256"/>
	<path style="fill:#A17852;" d="M499.848,334.107L276.851,110.294l-43.173,90.035L108.324,392.511l117.737,117.737   C235.884,511.392,245.87,512,256,512C370.144,512,466.823,437.29,499.848,334.107z"/>
	<g>
		<path style="fill:#6ECD24;" d="M265.247,153.549l-18.494-0.463c0.022-0.877,0.315-8.831,3.799-17.817    c5.026-12.967,14.121-21.603,26.3-24.976l4.937,17.83C265.955,132.508,265.253,153.34,265.247,153.549z"/>
		<path style="fill:#FF633D;" d="M288.573,176.639c0,17.958-14.615,32.567-32.573,32.567s-32.567-14.609-32.567-32.567    s14.609-32.573,32.567-32.573S288.573,158.681,288.573,176.639z"/>
		<path style="fill:#E70021;" d="M256,209.205v-65.14c17.958,0,32.573,14.615,32.573,32.573S273.958,209.205,256,209.205z"/>
		<polygon style="fill:#8A6746;" points="384.553,358.31 127.447,358.31 152.922,260.141 168.444,200.329 343.556,200.329     358.554,258.124   "/>
		<polygon style="fill:#684F37;" points="384.553,358.31 256,358.31 256,200.329 343.556,200.329 358.554,258.124   "/>
		<path style="fill:#F0E7DF;" d="M358.554,258.124h-28.139c-4.761,0-8.634,3.873-8.634,8.634v18.759    c0,15.843-12.889,28.725-28.731,28.725c-15.836,0-28.725-12.882-28.725-28.725v-17.68c0-4.878-3.626-8.936-8.325-9.614    c-0.45-0.062-0.913-0.099-1.388-0.099c-5.353,0-9.713,4.36-9.713,9.713v2.214c0,15.189-12.358,27.541-27.547,27.541    c-15.189,0-27.541-12.352-27.541-27.541v-1.277c0-4.761-3.873-8.634-8.634-8.634h-28.256l15.522-59.812h175.112L358.554,258.124z"/>
		<path style="fill:#DFCDBD;" d="M358.554,258.124h-28.139c-4.761,0-8.634,3.873-8.634,8.634v18.759    c0,15.843-12.889,28.725-28.731,28.725c-15.836,0-28.725-12.882-28.725-28.725v-17.68c0-4.878-3.626-8.936-8.325-9.614v-57.894    h87.556L358.554,258.124z"/>
		<path style="fill:#FFAA20;" d="M413.87,339.81v28.873c0,18.211-14.813,33.023-33.023,33.023H131.153    c-18.211,0-33.023-14.813-33.023-33.023V339.81H413.87z"/>
		<path style="fill:#FF8900;" d="M413.87,339.81v28.873c0,18.211-14.813,33.023-33.023,33.023H256V339.81H413.87z"/>
	</g>
</g>















</svg>
