<?xml version="1.0" encoding="iso-8859-1"?>
<!-- Generator: Adobe Illustrator 21.0.0, SVG Export Plug-In . SVG Version: 6.00 Build 0)  -->
<svg xmlns="http://www.w3.org/2000/svg" xmlns:xlink="http://www.w3.org/1999/xlink" version="1.1" id="Capa_1" x="0px" y="0px" viewBox="0 0 512 512" style="enable-background:new 0 0 512 512;" xml:space="preserve" width="512" height="512">
<g>
	<circle style="fill:#E70021;" cx="256" cy="256" r="256"/>
	<path style="fill:#BF272D;" d="M505.841,311.992l-175.95-175.95l-69.31,24.693c-0.233-0.237-24.713-24.693-24.713-24.693   L126.48,286.995l5.127,5.138l-28.762,63.409l17.684,17v14.769l125.103,124.463C249.073,511.911,252.526,512,256,512   C378.15,512,480.303,426.444,505.841,311.992z"/>
	<g>
		<g>
			<rect x="120.529" y="337.593" style="fill:#FFAA20;" width="75.231" height="49.717"/>
			<rect x="316.24" y="337.593" style="fill:#FF8900;" width="75.231" height="49.717"/>
		</g>
		<g>
			<path style="fill:#F0E7DF;" d="M391.955,278.748c-6.766,11.726-18.893,18.726-32.432,18.726H246.5     c-13.539,0-25.665-7-32.432-18.726c-6.772-11.72-6.772-25.719,0-37.445l56.512-97.887c6.772-11.726,18.893-18.726,32.432-18.726     c13.539,0,25.665,7,32.432,18.726l56.512,97.887C398.727,253.029,398.727,267.028,391.955,278.748z"/>
			<rect x="264.124" y="228.53" style="fill:#009100;" width="77.774" height="68.944"/>
			<path style="fill:#DFCDBD;" d="M391.955,278.748c-6.766,11.726-18.893,18.726-32.432,18.726h-56.512V124.69     c13.539,0,25.665,7,32.432,18.726l56.512,97.887C398.727,253.029,398.727,267.028,391.955,278.748z"/>
			<rect x="303.011" y="228.53" style="fill:#008300;" width="38.887" height="68.944"/>
			<path style="fill:#F0E7DF;" d="M297.932,278.748c-6.766,11.726-18.893,18.726-32.432,18.726H152.477     c-13.539,0-25.665-7-32.432-18.726c-6.772-11.72-6.772-25.719,0-37.445l56.512-97.887c6.772-11.726,18.893-18.726,32.432-18.726     s25.665,7,32.432,18.726l56.512,97.887C304.704,253.029,304.704,267.028,297.932,278.748z"/>
			<rect x="170.102" y="228.53" style="fill:#009100;" width="77.774" height="68.944"/>
			<path style="fill:#DFCDBD;" d="M297.932,278.748c-6.766,11.726-18.893,18.726-32.432,18.726h-56.512V124.69     c13.539,0,25.665,7,32.432,18.726l56.512,97.887C304.704,253.029,304.704,267.028,297.932,278.748z"/>
			<rect x="208.989" y="228.53" style="fill:#008300;" width="38.887" height="68.944"/>
		</g>
		<rect x="102.845" y="292.132" style="fill:#FFC473;" width="306.31" height="63.409"/>
		<rect x="256" y="292.132" style="fill:#FFB74F;" width="153.155" height="63.409"/>
	</g>
</g>















</svg>
