<?xml version="1.0" encoding="iso-8859-1"?>
<!-- Generator: Adobe Illustrator 21.0.0, SVG Export Plug-In . SVG Version: 6.00 Build 0)  -->
<svg xmlns="http://www.w3.org/2000/svg" xmlns:xlink="http://www.w3.org/1999/xlink" version="1.1" id="Capa_1" x="0px" y="0px" viewBox="0 0 512 512" style="enable-background:new 0 0 512 512;" xml:space="preserve" width="512" height="512">
<g>
	<circle style="fill:#E70021;" cx="256" cy="256" r="256"/>
	<path style="fill:#BF272D;" d="M496.473,344.001L364.271,211.799l-24.131-19.712l-57-57.043l-54.28,20.104l13,12.464L96.85,365.556   l146.116,146.116C247.283,511.889,251.629,512,256,512C366.464,512,460.588,442.035,496.473,344.001z"/>
	<g>
		<polygon style="fill:#FFAA20;" points="283.14,135.044 283.14,155.147 266.052,155.147 266.052,177.107 245.948,177.107     245.948,155.147 228.86,155.147 228.86,135.044   "/>
		<polygon style="fill:#FF8900;" points="266.052,177.107 256,177.107 256,135.044 283.14,135.044 283.14,155.147 266.052,155.147       "/>
		<path style="fill:#DFCDBD;" d="M409.122,320.077H102.878c0-40.904,15.929-79.355,44.851-108.277    c28.916-28.916,67.374-44.844,108.271-44.844s79.355,15.929,108.271,44.844C393.193,240.721,409.122,279.173,409.122,320.077z"/>
		<path style="fill:#F0E7DF;" d="M155.414,290.543l-19.897-2.875c0.193-1.333,4.97-32.87,26.878-52.127l13.272,15.1    C159.524,264.83,155.45,290.29,155.414,290.543z"/>
		<path style="fill:#C8AD92;" d="M409.122,320.077H256V166.955c40.897,0,79.355,15.929,108.271,44.844    C393.193,240.721,409.122,279.173,409.122,320.077z"/>
		<path style="fill:#FFAA20;" d="M427.55,313.543v22.871c0,22.355-18.187,40.542-40.542,40.542H124.992    c-22.355,0-40.542-18.187-40.542-40.542v-22.871H427.55z"/>
		<path style="fill:#FF8900;" d="M427.55,313.543v22.871c0,22.355-18.187,40.542-40.542,40.542H256v-63.413H427.55z"/>
	</g>
</g>















</svg>
