<?xml version="1.0" encoding="iso-8859-1"?>
<!-- Generator: Adobe Illustrator 21.0.0, SVG Export Plug-In . SVG Version: 6.00 Build 0)  -->
<svg xmlns="http://www.w3.org/2000/svg" xmlns:xlink="http://www.w3.org/1999/xlink" version="1.1" id="Capa_1" x="0px" y="0px" viewBox="0 0 512 512" style="enable-background:new 0 0 512 512;" xml:space="preserve" width="512" height="512">
<g>
	<circle style="fill:#BD9B7B;" cx="256" cy="256" r="256"/>
	<path style="fill:#A17852;" d="M509.596,291.088L376.623,158.115l-260.3,65.462l30.526,31.055v26.29L90.61,349.396l19.097,19   v15.307L237.32,511.318C243.49,511.763,249.717,512,256,512C385.479,512,492.489,415.869,509.596,291.088z"/>
	<g>
		<path style="fill:#FF633D;" d="M395.677,223.577c-5.73,7.875-14.594,12.398-24.33,12.398c-12.714,0-24.072-7.966-28.252-19.808    c-6.635-18.813-24.498-31.45-44.455-31.45H213.36c-19.957,0-37.82,12.637-44.455,31.45c-4.18,11.842-15.538,19.808-28.252,19.808    c-9.736,0-18.6-4.522-24.33-12.398c-5.711-7.85-7.268-17.637-4.283-26.85c6.396-19.737,18.632-36.715,35.391-49.107    c17.108-12.643,37.42-19.323,58.752-19.323h99.635c21.333,0,41.645,6.68,58.752,19.323c16.759,12.391,28.995,29.37,35.391,49.107    C402.945,205.939,401.382,215.727,395.677,223.577z"/>
		<path style="fill:#E70021;" d="M395.677,223.577c-5.73,7.875-14.594,12.398-24.33,12.398c-12.714,0-24.072-7.966-28.252-19.808    c-6.635-18.813-24.498-31.45-44.455-31.45H256v-56.42h49.817c21.333,0,41.645,6.68,58.752,19.323    c16.759,12.391,28.995,29.37,35.391,49.107C402.945,205.939,401.382,215.727,395.677,223.577z"/>
		<path style="fill:#F0E7DF;" d="M365.151,231.846v68.456H146.849v-68.456c0-36.67,29.835-66.511,66.511-66.511h85.279    C335.316,165.335,365.151,195.176,365.151,231.846z"/>
		<path style="fill:#DFCDBD;" d="M365.151,231.846v68.456H256V165.335h42.64C335.316,165.335,365.151,195.176,365.151,231.846z"/>
		<rect x="220.144" y="128.296" style="fill:#009100;" width="71.712" height="172.006"/>
		<rect x="256" y="128.296" style="fill:#008300;" width="35.856" height="172.006"/>
		<g>
			<rect x="109.706" y="330.015" style="fill:#FFAA20;" width="81.242" height="53.689"/>
			<rect x="321.052" y="330.015" style="fill:#FF8900;" width="81.242" height="53.689"/>
		</g>
		<rect x="90.61" y="280.922" style="fill:#FFC473;" width="330.781" height="68.475"/>
		<rect x="256" y="280.922" style="fill:#FFB74F;" width="165.39" height="68.475"/>
	</g>
</g>















</svg>
