<?xml version="1.0" encoding="iso-8859-1"?>
<!-- Generator: Adobe Illustrator 21.0.0, SVG Export Plug-In . SVG Version: 6.00 Build 0)  -->
<svg xmlns="http://www.w3.org/2000/svg" xmlns:xlink="http://www.w3.org/1999/xlink" version="1.1" id="Capa_1" x="0px" y="0px" viewBox="0 0 512 512" style="enable-background:new 0 0 512 512;" xml:space="preserve" width="512" height="512">
<g>
	<circle style="fill:#39B34A;" cx="256" cy="256" r="256"/>
	<path style="fill:#009100;" d="M260.666,511.941C399.896,509.45,512,395.825,512,256c0-4.833-0.146-9.631-0.411-14.397   L362.928,92.302l-19.183,20l-19.88-20l-19.183,20l-19.874-20l-19.183,50.561l-37.775-37.775l-60.658,101.955   c0,0,6.103,6.104,6.154,6.156l-5.415,206.499L260.666,511.941z"/>
	<g>
		<path style="fill:#DFCDBD;" d="M362.928,92.302v83.186c0,16.536-8.901,31.026-22.157,38.949l5.48,205.262h-63.945l5.384-205.313    c-13.205-7.935-22.067-22.4-22.067-38.897V92.302h19.183v62.928h19.874V92.302h19.183v62.928h19.88V92.302H362.928z"/>
		<path style="fill:#C8AD92;" d="M362.928,92.302v83.186c0,16.536-8.901,31.026-22.157,38.949l5.48,205.262h-31.972V92.302h9.585    v62.928h19.88V92.302H362.928z"/>
		<path style="fill:#DFCDBD;" d="M226.33,212.262l5.544,207.436h-63.945l5.442-207.5c-14.56-10.314-24.299-28.852-24.299-49.96    c0-15.136,5.077-32.139,13.582-45.477c10.058-15.775,23.282-24.459,37.241-24.459c13.966,0,27.189,8.684,37.248,24.459    c8.498,13.339,13.575,30.342,13.575,45.477C250.718,183.391,240.947,201.96,226.33,212.262z"/>
		<path style="fill:#C8AD92;" d="M226.33,212.262l5.544,207.436h-31.979V92.302c13.966,0,27.189,8.684,37.248,24.459    c8.498,13.339,13.575,30.342,13.575,45.477C250.718,183.391,240.947,201.96,226.33,212.262z"/>
		<polygon style="fill:#FFAA20;" points="231.874,419.698 167.929,419.698 169.291,367.692 230.48,367.692   "/>
		<polygon style="fill:#FF8900;" points="231.874,419.698 199.895,419.698 199.895,367.692 230.48,367.692   "/>
		<polygon style="fill:#FFAA20;" points="346.248,419.698 282.304,419.698 283.666,367.692 344.854,367.692   "/>
		<polygon style="fill:#FF8900;" points="346.248,419.698 314.27,419.698 314.27,367.692 344.854,367.692   "/>
	</g>
</g>















</svg>
