<?xml version="1.0" encoding="iso-8859-1"?>
<!-- Generator: Adobe Illustrator 21.0.0, SVG Export Plug-In . SVG Version: 6.00 Build 0)  -->
<svg xmlns="http://www.w3.org/2000/svg" xmlns:xlink="http://www.w3.org/1999/xlink" version="1.1" id="Capa_1" x="0px" y="0px" viewBox="0 0 512 512" style="enable-background:new 0 0 512 512;" xml:space="preserve" width="512" height="512">
<g>
	<circle style="fill:#39B34A;" cx="256" cy="256" r="256"/>
	<path style="fill:#009100;" d="M510.358,284.973l-174.73-174.73l-47.376,95.646L122.485,399.531l112.048,111.565   C241.612,511.684,248.769,512,256,512C387.587,512,495.966,412.714,510.358,284.973z"/>
	<g>
		<path style="fill:#FFB74D;" d="M411.774,186.394l-41.671,41.671c-8.409,8.409-19.461,12.617-30.506,12.617    c-11.046,0-22.091-4.208-30.5-12.617l-1.532-1.532l-5.682-5.676l-0.359-0.359l-6.041-6.041l-1.532-1.532    c-8.147-8.147-12.634-18.982-12.634-30.506c0-11.524,4.487-22.353,12.634-30.5l41.677-41.677l13.608,13.613    c10.004,10.004,14.057,23.736,12.161,36.769c0.37-0.051,0.734-0.102,1.105-0.148c12.697-1.514,25.946,2.585,35.664,12.304    L411.774,186.394z"/>
		<path style="fill:#FF9A00;" d="M411.774,186.394l-41.671,41.671c-8.409,8.409-19.461,12.617-30.506,12.617    c-11.046,0-22.091-4.208-30.5-12.617l-1.532-1.532l-5.682-5.676l60.619-60.38c12.697-1.514,25.946,2.585,35.664,12.304    L411.774,186.394z"/>
		<path style="fill:#FF633D;" d="M264.812,362.848c-7.664,6.832-16.232,12.828-25.564,17.935    c-18.453,10.112-39.917,16.75-63.415,19.517c-9.337,1.099-17.832,1.458-24.961,1.458c-13.112,0-21.584-1.218-22.119-1.298    l-6.246-0.922l-0.023-0.006l-0.928-6.269c-0.342-2.323-8.113-57.471,18.219-107.87c0.626-1.196,1.264-2.374,1.913-3.541    c20.212-36.268,53.388-59.873,98.664-70.196c20.104-4.583,42.804-6.513,67.474-5.739l8.017,0.256l0.023,0.757l0.228,7.254    C318.189,280.662,300.938,330.679,264.812,362.848z"/>
		<path style="fill:#E70021;" d="M264.812,362.848c-7.664,6.832-16.232,12.828-25.564,17.935    c-18.453,10.112-39.917,16.75-63.415,19.517c-9.337,1.099-17.832,1.458-24.961,1.458c-13.112,0-21.584-1.218-22.119-1.298    l-6.246-0.922L315.866,206.93l0.228,7.254C318.189,280.662,300.938,330.679,264.812,362.848z"/>
		<path style="fill:#FFC473;" d="M239.248,380.783c-18.453,10.112-39.917,16.75-63.415,19.517    c-9.337,1.099-17.832,1.458-24.961,1.458c-13.112,0-21.584-1.218-22.119-1.298l-6.246-0.922l-0.023-0.006l-0.928-6.269    c-0.342-2.323-8.113-57.471,18.219-107.87c0.626-1.196,1.264-2.374,1.913-3.541c7.943,2.522,21.801,7.84,36.957,17.827    c7.544,4.97,15.931,11.478,24.186,19.842C217.037,333.913,230.85,353.801,239.248,380.783z"/>
		
			<rect id="XMLID_49_" x="144.859" y="329.407" transform="matrix(0.7071 -0.7071 0.7071 0.7071 -194.0555 207.5016)" style="fill:#FF633D;" width="17.179" height="17.179"/>
		<path style="fill:#FFC473;" d="M241.281,319.731l-15.743-6.622l-0.046,0.108c0.319-0.82,2.693-7.578-2.107-14.171    c-0.529-0.723-1.139-1.44-1.85-2.152c-7.242-7.236-15.566-4.384-16.494-4.031l0.108-0.046l-6.485-15.8    c7.151-2.932,22.558-4.589,34.947,7.8c0.695,0.695,1.344,1.395,1.947,2.107C245.83,298.926,244.11,313.007,241.281,319.731z"/>
		<path style="fill:#FFB74F;" d="M202.832,319.52c14.205,14.393,28.018,34.281,36.416,61.263    c-18.453,10.112-39.917,16.75-63.415,19.517c-9.337,1.099-17.832,1.458-24.961,1.458c-13.112,0-21.584-1.218-22.119-1.298    l-6.246-0.922L202.832,319.52z"/>
		<path style="fill:#FFB74F;" d="M235.558,286.925c10.271,12.002,8.552,26.082,5.722,32.806l-15.743-6.622l-0.046,0.108    c0.319-0.82,2.693-7.578-2.107-14.171L235.558,286.925z"/>
	</g>
</g>















</svg>
