<?xml version="1.0" encoding="iso-8859-1"?>
<!-- Generator: Adobe Illustrator 21.0.0, SVG Export Plug-In . SVG Version: 6.00 Build 0)  -->
<svg xmlns="http://www.w3.org/2000/svg" xmlns:xlink="http://www.w3.org/1999/xlink" version="1.1" id="Capa_1" x="0px" y="0px" viewBox="0 0 512 512" style="enable-background:new 0 0 512 512;" xml:space="preserve" width="512" height="512">
<g>
	<circle style="fill:#39B34A;" cx="256" cy="256" r="256"/>
	<path style="fill:#009100;" d="M276.872,511.149C408.493,500.527,512,390.357,512,256c0-14.867-1.282-29.433-3.715-43.606   l-94.074-94.604l-234.954,17.368l17.658,18.086l-17.658,17.368l17.658,17v72.32l-43.586,94.384l26.061,26.064v33.83   L276.872,511.149z"/>
	<g>
		<rect x="179.257" y="153.245" style="fill:#FF633D;" width="35.026" height="17.368"/>
		<rect x="265.81" y="153.245" style="fill:#E70021;" width="148.402" height="17.368"/>
		<rect x="179.257" y="117.79" style="fill:#FF633D;" width="234.954" height="17.368"/>
		<rect x="240.046" y="117.79" style="fill:#E70021;" width="174.165" height="17.368"/>
		<g>
			<rect x="196.915" y="117.79" style="fill:#FFB74D;" width="17.368" height="156.403"/>
			<rect x="231.362" y="117.79" style="fill:#FFB74D;" width="17.368" height="156.403"/>
			<rect x="265.81" y="117.79" style="fill:#FFB74D;" width="17.368" height="156.403"/>
		</g>
		<rect x="240.046" y="117.79" style="fill:#FF9A00;" width="8.684" height="156.403"/>
		<rect x="265.81" y="117.79" style="fill:#FF9A00;" width="17.368" height="156.403"/>
		<path style="fill:#6ECD24;" d="M360.114,259.933v8.684c0,9.605-1.135,19.117-3.352,28.339c-1.413,5.923-3.277,11.729-5.575,17.368    c-2.611,6.415-5.778,12.615-9.489,18.532c-10.757,17.166-25.618,31.338-43.184,41.267v40.086H179.39v-40.086    c-17.565-9.929-32.427-24.102-43.184-41.267c-3.711-5.917-6.878-12.117-9.489-18.532c-2.298-5.639-4.163-11.446-5.575-17.368    c-2.217-9.223-3.352-18.735-3.352-28.339v-8.684H360.114z"/>
		<path style="fill:#66BD21;" d="M360.114,259.933v8.684c0,9.605-1.135,19.117-3.352,28.339c-1.413,5.923-3.277,11.729-5.575,17.368    c-2.611,6.415-5.778,12.615-9.489,18.532c-10.757,17.166-25.618,31.338-43.184,41.267v40.086h-58.468V259.933H360.114z"/>
		<path style="fill:#D5F3CB;" d="M356.762,296.957c-1.413,5.923-3.277,11.729-5.575,17.368H126.717    c-2.298-5.639-4.163-11.446-5.575-17.368H356.762z"/>
		<path style="fill:#B6EFAB;" d="M240.046,296.957h116.716c-1.413,5.923-3.277,11.729-5.575,17.368H240.046V296.957z"/>
	</g>
</g>















</svg>
