<?xml version="1.0" encoding="iso-8859-1"?>
<!-- Generator: Adobe Illustrator 21.0.0, SVG Export Plug-In . SVG Version: 6.00 Build 0)  -->
<svg xmlns="http://www.w3.org/2000/svg" xmlns:xlink="http://www.w3.org/1999/xlink" version="1.1" id="Capa_1" x="0px" y="0px" viewBox="0 0 512 512" style="enable-background:new 0 0 512 512;" xml:space="preserve" width="512" height="512">
<g>
	<circle style="fill:#39B34A;" cx="256" cy="256" r="256"/>
	<path style="fill:#009100;" d="M288.961,509.894C414.777,493.721,512,386.216,512,256c0-12.124-0.862-24.044-2.492-35.719   l-117.123-118.3l-53.679,26l-25.735-26l-77.459,76.776l-83.46,163.158c0,0,37.023,37.023,37.034,37.035v31.068L288.961,509.894z"/>
	<g>
		<polygon style="fill:#008300;" points="290.733,101.982 229.648,186.91 244.298,197.46 312.971,101.982   "/>
		<path style="fill:#F0E7DF;" d="M324.881,263.617c0,0.235-0.006,0.469-0.006,0.704l-0.006,0.253l-0.114,8.922H146.526l-0.12-9.169    c0-0.241-0.006-0.475-0.006-0.71c0-46.795,40.033-84.861,89.24-84.861S324.881,216.822,324.881,263.617z"/>
		<path style="fill:#DFCDBD;" d="M324.754,273.496H235.64v-94.739c49.208,0,89.241,38.065,89.241,84.861    c0,0.235-0.006,0.469-0.006,0.704l-0.006,0.253L324.754,273.496z"/>
		<path style="fill:#FF633D;" d="M351.671,265.59c0,7.135-0.716,14.114-2.094,20.877c-1.257,6.215-3.074,12.255-5.391,18.061    c-11.052,27.705-33.553,50.098-61.986,61.974v43.516h-93.115v-43.516c-28.433-11.876-50.934-34.269-61.986-61.974    c-2.316-5.806-4.133-11.846-5.391-18.061c-1.378-6.762-2.094-13.741-2.094-20.877c0-0.289,0.006-0.572,0.012-0.86l0.006-0.367    l0.096-8.934h231.816l0.114,9.271C351.665,264.994,351.671,265.289,351.671,265.59z"/>
		<path style="fill:#E70021;" d="M351.671,265.59c0,7.135-0.716,14.114-2.094,20.877c-1.257,6.215-3.074,12.255-5.391,18.061    c-11.052,27.705-33.553,50.098-61.986,61.974v43.516H235.64v-154.59h115.905l0.114,9.271    C351.665,264.994,351.671,265.289,351.671,265.59z"/>
		<polygon style="fill:#008300;" points="366.138,101.982 235.641,225.663 248.052,238.776 392.385,101.982   "/>
		<path style="fill:#FFF5CB;" d="M349.578,286.467c-1.257,6.215-3.074,12.255-5.391,18.061H127.099    c-2.316-5.806-4.133-11.846-5.391-18.061H349.578z"/>
		<path style="fill:#FFEC97;" d="M349.578,286.467c-1.257,6.215-3.074,12.255-5.391,18.061H235.64v-18.061H349.578z"/>
	</g>
</g>















</svg>
