<svg height="512pt" viewBox="0 0 512 512" width="512pt" xmlns="http://www.w3.org/2000/svg" xmlns:xlink="http://www.w3.org/1999/xlink"><linearGradient id="a" gradientUnits="userSpaceOnUse" x1="74.9807" x2="437.0193" y1="74.9807" y2="437.0193"><stop offset="0" stop-color="#ff5a99"/><stop offset="1" stop-color="#e53c79"/></linearGradient><linearGradient id="b" gradientUnits="userSpaceOnUse" x1="192.7946" x2="320.6085" y1="243.8078" y2="371.6217"><stop offset="0" stop-color="#7fe881"/><stop offset="1" stop-color="#00ab94"/></linearGradient><linearGradient id="c" gradientUnits="userSpaceOnUse" x1="140.9037" x2="261.8908" y1="137.3116" y2="258.2987"><stop offset="0" stop-color="#ffda2d"/><stop offset="1" stop-color="#eebf00"/></linearGradient><linearGradient id="d" gradientUnits="userSpaceOnUse" x1="230.0748" x2="259.7249" y1="260.4645" y2="290.1146"><stop offset="0" stop-color="#fed2a4"/><stop offset="1" stop-color="#f6a96c"/></linearGradient><linearGradient id="e" gradientUnits="userSpaceOnUse" x1="160.6185" x2="200.0419" y1="78.1745" y2="117.5978"><stop offset="0" stop-color="#663325"/><stop offset="1" stop-color="#3c1b13"/></linearGradient><linearGradient id="f" gradientUnits="userSpaceOnUse" x1="185.3266" x2="342.5108" y1="269.2112" y2="426.3954"><stop offset="0" stop-color="#e2d8fc"/><stop offset="1" stop-color="#b3a2db"/></linearGradient><linearGradient id="g" gradientUnits="userSpaceOnUse" x1="154.0954" x2="244.5592" y1="292.308" y2="382.7719"><stop offset="0" stop-color="#d697ef"/><stop offset="1" stop-color="#ae73e6"/></linearGradient><linearGradient id="h"><stop offset="0" stop-color="#f2f2fc"/><stop offset="1" stop-color="#e2d8fc"/></linearGradient><linearGradient id="i" gradientUnits="userSpaceOnUse" x1="203.5586" x2="329.418" xlink:href="#h" y1="228.3242" y2="354.1836"/><linearGradient id="j" gradientUnits="userSpaceOnUse" x1="245.5117" x2="287.4648" xlink:href="#h" y1="312.2305" y2="354.1836"/><path d="m512 256c0 141.386719-114.613281 256-256 256s-256-114.613281-256-256 114.613281-256 256-256 256 114.613281 256 256zm0 0" fill="url(#a)"/><path d="m339.90625 352.324219-29.042969-79.800781-19.097656-52.464844-54.039063 35.519531-64.230468 7.527344 48.140625 132.265625zm0 0" fill="url(#b)"/><path d="m251.257812 267.796875 40.507813-47.738281c-1.171875-.820313-17.070313-6.519532-34.566406-21.519532-9.496094-8.140624-19.460938-19.023437-27.800781-33.355468-3.804688-6.539063-7.273438-13.796875-10.203126-21.839844l-11.980468-32.917969-26.886719-12.539062-12.535156 26.886719 11.980469 32.917968c20.804687 57.164063-5.613282 102.941406-6.277344 105.414063l71.402344 12.183593zm0 0" fill="url(#c)"/><path d="m264.609375 268.113281c-3.945313-10.839843-16.042969-16.480469-26.882813-12.535156-10.84375 3.945313-16.484374 16.042969-12.539062 26.886719 3.945312 10.839844 16.046875 16.480468 26.886719 12.535156 10.839843-3.945312 16.484375-16.042969 12.535156-26.886719zm0 0" fill="url(#d)"/><path d="m207.214844 110.421875-7.679688-21.097656-6.667968-18.324219-19.710938 7.175781-19.710938 7.171875 14.347657 39.425782zm0 0" fill="url(#e)"/><path d="m266.488281 291.253906h-92.925781l-19.507812 9.230469 21.8125 6.292969 7.765624 55.378906 3.355469 22.234375 6.082031 44.609375h146.835938l19.507812-137.746094zm0 0" fill="url(#f)"/><path d="m256 333.207031c0 16.992188-24.125 31.464844-52.441406 31.464844-7.132813 0-13.84375-.839844-19.925782-2.515625-18.878906-4.828125-32.515624-16.152344-32.515624-28.949219 0-10.488281 9.859374-20.765625 24.753906-26.429687l-3.148438-21.1875c-25.800781 8.390625-42.582031 26.851562-42.582031 47.617187 0 25.171875 23.914063 45.9375 56.847656 51.183594 5.242188.835937 10.90625 1.257813 16.570313 1.257813 41.117187 0 73.417968-23.074219 73.417968-52.441407zm0 0" fill="url(#g)"/><path d="m266.488281 280.765625h-115.371093v20.976563h230.742187v-20.976563zm0 0" fill="url(#i)"/><path d="m266.488281 322.71875h-31.464843v20.976562h62.929687v-20.976562zm0 0" fill="url(#j)"/></svg>