<svg height="512pt" viewBox="0 0 512 512" width="512pt" xmlns="http://www.w3.org/2000/svg" xmlns:xlink="http://www.w3.org/1999/xlink"><linearGradient id="a" gradientUnits="userSpaceOnUse" x1="74.9807" x2="437.0193" y1="74.9807" y2="437.0193"><stop offset="0" stop-color="#663325"/><stop offset="1" stop-color="#3c1b13"/></linearGradient><linearGradient id="b"><stop offset="0" stop-color="#f2f2fc"/><stop offset="1" stop-color="#e2d8fc"/></linearGradient><linearGradient id="c" gradientUnits="userSpaceOnUse" x1="274.7021" x2="324.9101" xlink:href="#b" y1="179.2568" y2="229.4648"/><linearGradient id="d"><stop offset="0" stop-color="#e2d8fc"/><stop offset="1" stop-color="#b3a2db"/></linearGradient><linearGradient id="e" gradientUnits="userSpaceOnUse" x1="304.6961" x2="373.7573" xlink:href="#d" y1="318.2366" y2="387.2978"/><linearGradient id="f" gradientUnits="userSpaceOnUse" x1="147.7699" x2="202.7167" xlink:href="#d" y1="315.8673" y2="370.814"/><linearGradient id="g"><stop offset="0" stop-color="#a4f7f7"/><stop offset="1" stop-color="#76e2f8"/></linearGradient><linearGradient id="h" gradientUnits="userSpaceOnUse" x1="240.541" x2="271.459" xlink:href="#g" y1="85.377" y2="116.2951"/><linearGradient id="i" gradientUnits="userSpaceOnUse" x1="294.6049" x2="318.2148" xlink:href="#g" y1="109.8672" y2="133.4771"/><linearGradient id="j" gradientUnits="userSpaceOnUse" x1="188.2126" x2="222.9678" xlink:href="#g" y1="104.2945" y2="139.0497"/><linearGradient id="k" gradientUnits="userSpaceOnUse" x1="377.6557" x2="417.9835" xlink:href="#g" y1="131.7541" y2="172.0819"/><linearGradient id="l" gradientUnits="userSpaceOnUse" x1="94.0165" x2="134.3443" xlink:href="#g" y1="131.7541" y2="172.0819"/><linearGradient id="m" gradientUnits="userSpaceOnUse" x1="407.9016" x2="428.0655" xlink:href="#g" y1="222.4917" y2="242.6556"/><linearGradient id="n" gradientUnits="userSpaceOnUse" x1="83.9345" x2="104.0984" xlink:href="#g" y1="222.4917" y2="242.6556"/><linearGradient id="o" gradientUnits="userSpaceOnUse" x1="178.7718" x2="240.1712" xlink:href="#b" y1="176.3834" y2="237.7828"/><linearGradient id="p"><stop offset="0" stop-color="#ff5a99"/><stop offset="1" stop-color="#e53c79"/></linearGradient><linearGradient id="q" gradientUnits="userSpaceOnUse" x1="158.306" x2="228.9526" xlink:href="#p" y1="221.8523" y2="292.4988"/><linearGradient id="r" gradientUnits="userSpaceOnUse" x1="125.2369" x2="194.0969" xlink:href="#b" y1="367.2346" y2="436.0945"/><linearGradient id="s" gradientUnits="userSpaceOnUse" x1="278.4467" x2="358.2946" xlink:href="#p" y1="217.2516" y2="297.0995"/><linearGradient id="t" gradientUnits="userSpaceOnUse" x1="328.3376" x2="376.3285" xlink:href="#b" y1="377.6691" y2="425.66"/><path d="m512 256c0 141.386719-114.613281 256-256 256s-256-114.613281-256-256 114.613281-256 256-256 256 114.613281 256 256zm0 0" fill="url(#a)"/><path d="m343.109375 211.265625-34.683594 26.414063-4.4375 3.429687-39.117187-10.285156-8.871094-32.863281 77.832031-20.972657zm0 0" fill="url(#c)"/><path d="m335.851562 301.398438-9.679687 2.621093-9.679687 2.421875 26.210937 97.792969 19.359375-5.242187zm0 0" fill="url(#e)"/><path d="m190.871094 285.066406-9.679688-2.621094-31.253906 116.546876 19.359375 5.242187 31.253906-116.546875zm0 0" fill="url(#f)"/><path d="m245.917969 80h20.164062v41.671875h-20.164062zm0 0" fill="url(#h)"/><path d="m305.347656 146.34375-18.039062-9.015625 20.164062-40.328125 18.039063 9.019531zm0 0" fill="url(#i)"/><path d="m206.652344 146.34375-20.164063-40.324219 18.039063-9.019531 20.164062 40.328125zm0 0" fill="url(#j)"/><path d="m428.066406 141.835938h-20.164062v-20.164063h-20.164063v20.164063h-20.164062v20.164062h20.164062v20.164062h20.164063v-20.164062h20.164062zm0 0" fill="url(#k)"/><path d="m144.425781 141.835938h-20.164062v-20.164063h-20.164063v20.164063h-20.164062v20.164062h20.164062v20.164062h20.164063v-20.164062h20.164062zm0 0" fill="url(#l)"/><path d="m407.902344 222.492188h20.164062v20.164062h-20.164062zm0 0" fill="url(#m)"/><path d="m83.933594 222.492188h20.164062v20.164062h-20.164062zm0 0" fill="url(#n)"/><path d="m256 197.960938-8.871094 32.863281-43.757812 7.664062-15.523438 2.621094-18.957031-29.84375 9.277344-34.277344zm0 0" fill="url(#o)"/><path d="m208.011719 221.148438-39.121094-9.882813c-.601563 2.421875-9.878906 37.101563-10.484375 39.121094-7.058594 26.816406 1.210938 54.84375 22.179688 73.394531 27.222656-5.644531 48.597656-25.808594 55.855468-52.628906 1.007813-3.628906 9.878906-37.101563 10.6875-40.328125zm0 0" fill="url(#q)"/><path d="m211.035156 405.042969-5.242187 19.355469-48.796875-12.90625-48.597656-13.105469 5.246093-19.558594 48.59375 13.109375zm0 0" fill="url(#r)"/><path d="m353.59375 250.386719c-.605469-2.21875-9.878906-37.101563-10.484375-39.121094l-39.121094 9.882813-39.117187 9.675781c.40625 2.019531 10.082031 37.707031 10.6875 40.328125 7.257812 26.820312 28.632812 46.984375 55.851562 52.628906 20.972656-18.550781 29.242188-46.578125 22.183594-73.394531zm0 0" fill="url(#s)"/><path d="m403.601562 398.386719-48.597656 13.105469-48.796875 12.90625-5.242187-19.355469 48.796875-13.105469 48.59375-13.109375zm0 0" fill="url(#t)"/></svg>