<svg height="512pt" viewBox="0 0 512 512" width="512pt" xmlns="http://www.w3.org/2000/svg"><path d="m512 256c0 141.386719-114.613281 256-256 256s-256-114.613281-256-256 114.613281-256 256-256 256 114.613281 256 256zm0 0" fill="#b35f49"/><path d="m416.441406 135.246094-50.25-50.25-19.972656 19.972656 50.25 50.25-21.28125 21.28125 131.519531 131.519531c3.46875-16.796875 5.292969-34.195312 5.292969-52.019531 0-9.9375-.585938-19.734375-1.6875-29.375l-92.625-92.625zm0 0" fill="#99503d"/><path d="m301.816406 117.628906-21.625 21.625-54.25-54.25-13.09375 13.09375 10.351563 10.351563-17.292969 17.292969 20.21875 20.007812-20.214844 40.160156 144.332032 144.332032-2.917969 2.917968-191.164063-191.167968-14.082031 14.082031 191.164063 191.167969-3.019532 3.023437-144.359375-144.359375-40.070312 20.09375-19.996094-20.089844-11.441406 11.445313-10.375-10.375-18.96875 18.96875 54.84375 54.84375-21.625 21.625 86.050781 86.050781-8.09375 8.09375-70.75-70.75-40.375 40.375 144.457031 144.457031c8.703125.894531 17.539063 1.355469 26.480469 1.355469 119.359375 0 219.636719-81.683594 247.984375-192.203125zm0 0" fill="#99503d"/><path d="m205.902344 145.785156h20.039062v40.078125h-20.039062zm0 0" fill="#ffda2d"/><path d="m205.902344 245.980469h20.039062v40.078125h-20.039062zm0 0" fill="#ffda2d"/><g fill="#9cdd05"><path d="m346.175781 306.097656h20.039063v40.078125h-20.039063zm0 0"/><path d="m346.175781 386.253906h20.039063v40.746094h-20.039063zm0 0"/><path d="m333.820312 364.886719-34.703124-20.039063 10.019531-17.355468 34.707031 20.035156zm0 0"/><path d="m403.242188 404.964844-34.703126-20.039063 10.019532-17.355469 34.707031 20.039063zm0 0"/><path d="m309.15625 404.949219-10.019531-17.359375 34.710937-20.035156 10.019532 17.359374zm0 0"/><path d="m378.578125 364.867188-10.019531-17.359376 34.710937-20.03125 10.019531 17.359376zm0 0"/></g><path d="m201.753906 187.585938-14.167968 14.167968-28.34375-28.347656 14.167968-14.167969zm0 0" fill="#ffda2d"/><path d="m230.085938 244.257812 14.167968-14.167968 28.347656 28.347656-14.167968 14.167969zm0 0" fill="#fdbf00"/><path d="m145.785156 205.902344h40.078125v20.039062h-40.078125zm0 0" fill="#ffda2d"/><path d="m245.980469 205.902344h40.078125v20.039062h-40.078125zm0 0" fill="#fdbf00"/><path d="m159.238281 258.4375 28.34375-28.347656 14.167969 14.167968-28.34375 28.347657zm0 0" fill="#ffda2d"/><path d="m258.4375 159.238281 14.167969 14.167969-28.347657 28.34375-14.167968-14.167969zm0 0" fill="#fdbf00"/><path d="m205.902344 85h20.039062v40.746094h-20.039062zm0 0" fill="#ffda2d"/><path d="m205.902344 306.097656h20.039062v40.078125h-20.039062zm0 0" fill="#ffda2d"/><path d="m130.902344 116.734375 28.335937 28.335937-14.167969 14.167969-28.335937-28.335937zm0 0" fill="#ffda2d"/><path d="m286.773438 272.601562 28.335937 28.335938-14.167969 14.167969-28.335937-28.335938zm0 0" fill="#fdbf00"/><path d="m85 205.902344h40.746094v20.039062h-40.746094zm0 0" fill="#ffda2d"/><path d="m306.097656 205.902344h40.078125v20.039062h-40.078125zm0 0" fill="#fdbf00"/><path d="m130.902344 315.113281-14.167969-14.167969 28.335937-28.335937 14.167969 14.167969zm0 0" fill="#ffda2d"/><path d="m300.941406 116.730469 14.167969 14.167969-28.335937 28.339843-14.167969-14.167969zm0 0" fill="#fdbf00"/><path d="m386.253906 225.941406h20.039063v20.039063h-20.039063zm0 0" fill="#76e2f8"/><path d="m185.863281 386.253906h20.039063v20.039063h-20.039063zm0 0" fill="#9bfcff"/><path d="m346.175781 85h20.039063v20.039062h-20.039063zm0 0" fill="#76e2f8"/><path d="m396.941406 125.746094c-16.574218 0-30.058594 13.484375-30.058594 30.058594 0 16.578124 13.480469 30.058593 30.058594 30.058593 16.574219 0 30.058594-13.484375 30.058594-30.058593 0-16.574219-13.484375-30.058594-30.058594-30.058594zm0 40.078125c-5.527344 0-10.019531-4.492188-10.019531-10.019531 0-5.53125 4.488281-10.019532 10.019531-10.019532 5.527344 0 10.019532 4.488282 10.019532 10.019532 0 5.527343-4.492188 10.019531-10.019532 10.019531zm0 0" fill="#76e2f8"/><path d="m125.746094 326.136719h-20.039063v20.039062h-20.707031v20.039063h20.707031v20.039062h20.039063v-20.039062h20.039062v-20.039063h-20.039062zm0 0" fill="#c3ea21"/><path d="m215.921875 85h10.019531v40.746094h-10.019531zm0 0" fill="#fdbf00"/><path d="m215.921875 145.785156h10.019531v40.078125h-10.019531zm0 0" fill="#fdbf00"/><path d="m215.921875 245.980469h10.019531v40.078125h-10.019531zm0 0" fill="#fdbf00"/><path d="m215.921875 306.097656h10.019531v40.078125h-10.019531zm0 0" fill="#fdbf00"/></svg>