<svg height="512pt" viewBox="0 0 512 512" width="512pt" xmlns="http://www.w3.org/2000/svg" xmlns:xlink="http://www.w3.org/1999/xlink"><linearGradient id="a" gradientUnits="userSpaceOnUse" x1="74.9807" x2="437.0193" y1="74.9807" y2="437.0193"><stop offset="0" stop-color="#ffda2d"/><stop offset="1" stop-color="#eebf00"/></linearGradient><linearGradient id="b"><stop offset="0" stop-color="#663325"/><stop offset="1" stop-color="#3c1b13"/></linearGradient><linearGradient id="c" gradientUnits="userSpaceOnUse" x1="162.5072" x2="348.9655" xlink:href="#b" y1="108.5762" y2="295.0345"/><linearGradient id="d" gradientUnits="userSpaceOnUse" x1="210.7837" x2="285.7849" y1="275.2161" y2="350.2173"><stop offset="0" stop-color="#a4f7f7"/><stop offset="1" stop-color="#76e2f8"/></linearGradient><linearGradient id="e"><stop offset="0" stop-color="#d697ef"/><stop offset="1" stop-color="#ae73e6"/></linearGradient><linearGradient id="f" gradientUnits="userSpaceOnUse" x1="361.6" x2="425.3333" xlink:href="#e" y1="282.4" y2="346.1333"/><linearGradient id="g" gradientUnits="userSpaceOnUse" x1="324.4667" x2="419.2667" xlink:href="#b" y1="266.8667" y2="361.6667"/><linearGradient id="h" gradientUnits="userSpaceOnUse" x1="86.2302" x2="149.7864" xlink:href="#e" y1="282.4886" y2="346.0447"/><linearGradient id="i" gradientUnits="userSpaceOnUse" x1="92.0311" x2="186.8311" xlink:href="#b" y1="266.8667" y2="361.6667"/><path d="m512 256c0 141.386719-114.613281 256-256 256s-256-114.613281-256-256 114.613281-256 256-256 256 114.613281 256 256zm0 0" fill="url(#a)"/><path d="m392.933594 208.933594v31.597656l-10.535156 21.070312-10.53125-21.070312v-31.597656c0-63.832032-52.035157-115.867188-115.867188-115.867188s-116.570312 52.035156-116.570312 115.867188v31.597656l-10.53125 21.070312-10.535157-21.070312v-31.597656c0-75.417969 62.21875-136.933594 137.636719-136.933594s136.933594 61.515625 136.933594 136.933594zm0 0" fill="url(#c)"/><path d="m256 240.53125h-10.53125v86.078125c-3.296875-1.167969-6.84375-1.808594-10.535156-1.808594-17.425782 0-31.597656 14.171875-31.597656 31.597657 0 17.425781 14.171874 31.601562 31.597656 31.601562 17.425781 0 31.601562-14.175781 31.601562-31.601562v-92.90625c12.21875 4.214843 21.066406 16.011718 21.066406 29.707031v31.601562h21.066407v-31.601562c0-29.070313-23.597657-52.667969-52.667969-52.667969zm0 0" fill="url(#d)"/><path d="m382.398438 261.601562v105.332032c29.039062 0 53.371093-23.628906 53.371093-52.667969s-24.332031-52.664063-53.371093-52.664063zm0 0" fill="url(#f)"/><path d="m350.800781 240.53125h42.132813v147.46875h-42.132813zm0 0" fill="url(#g)"/><path d="m76.230469 314.265625c0 29.039063 23.628906 52.667969 52.667969 52.667969v-105.332032c-29.039063 0-52.667969 23.625-52.667969 52.664063zm0 0" fill="url(#h)"/><path d="m118.363281 240.53125h42.132813v147.46875h-42.132813zm0 0" fill="url(#i)"/></svg>